<svg id="visual" viewBox="0 0 960 540" width="960" height="540" xmlns="http://www.w3.org/2000/svg" xmlns:xlink="http://www.w3.org/1999/xlink" version="1.1"><path d="M0 77L96 77L96 98L192 98L192 50L288 50L288 55L384 55L384 82L480 82L480 93L576 93L576 55L672 55L672 120L768 120L768 66L864 66L864 55L960 55L960 60L960 0L960 0L864 0L864 0L768 0L768 0L672 0L672 0L576 0L576 0L480 0L480 0L384 0L384 0L288 0L288 0L192 0L192 0L96 0L96 0L0 0Z" fill="#f87171"></path><path d="M0 158L96 158L96 206L192 206L192 217L288 217L288 249L384 249L384 239L480 239L480 195L576 195L576 233L672 233L672 266L768 266L768 168L864 168L864 168L960 168L960 239L960 58L960 53L864 53L864 64L768 64L768 118L672 118L672 53L576 53L576 91L480 91L480 80L384 80L384 53L288 53L288 48L192 48L192 96L96 96L96 75L0 75Z" fill="#ec6166"></path><path d="M0 239L96 239L96 276L192 276L192 293L288 293L288 325L384 325L384 276L480 276L480 266L576 266L576 298L672 298L672 325L768 325L768 228L864 228L864 212L960 212L960 314L960 237L960 166L864 166L864 166L768 166L768 264L672 264L672 231L576 231L576 193L480 193L480 237L384 237L384 247L288 247L288 215L192 215L192 204L96 204L96 156L0 156Z" fill="#e1515a"></path><path d="M0 271L96 271L96 336L192 336L192 352L288 352L288 384L384 384L384 330L480 330L480 330L576 330L576 341L672 341L672 368L768 368L768 266L864 266L864 255L960 255L960 363L960 312L960 210L864 210L864 226L768 226L768 323L672 323L672 296L576 296L576 264L480 264L480 274L384 274L384 323L288 323L288 291L192 291L192 274L96 274L96 237L0 237Z" fill="#d54050"></path><path d="M0 471L96 471L96 460L192 460L192 487L288 487L288 487L384 487L384 460L480 460L480 482L576 482L576 471L672 471L672 498L768 498L768 455L864 455L864 455L960 455L960 487L960 361L960 253L864 253L864 264L768 264L768 366L672 366L672 339L576 339L576 328L480 328L480 328L384 328L384 382L288 382L288 350L192 350L192 334L96 334L96 269L0 269Z" fill="#ca2d46"></path><path d="M0 541L96 541L96 541L192 541L192 541L288 541L288 541L384 541L384 541L480 541L480 541L576 541L576 541L672 541L672 541L768 541L768 541L864 541L864 541L960 541L960 541L960 485L960 453L864 453L864 453L768 453L768 496L672 496L672 469L576 469L576 480L480 480L480 458L384 458L384 485L288 485L288 485L192 485L192 458L96 458L96 469L0 469Z" fill="#be123c"></path></svg>